<?xml version="1.0" encoding="iso-8859-1"?>
<!-- Generator: Adobe Illustrator 19.0.0, SVG Export Plug-In . SVG Version: 6.00 Build 0)  -->
<svg version="1.1" id="Layer_1" xmlns="http://www.w3.org/2000/svg" xmlns:xlink="http://www.w3.org/1999/xlink" x="0px" y="0px"
	 viewBox="0 0 512 512" style="enable-background:new 0 0 512 512;" xml:space="preserve">
<polygon style="fill:#90BC42;" points="283.652,462.908 252.142,512 49.6,426.577 187.668,292.473 "/>
<polygon style="fill:#9AD14B;" points="383.898,426.577 378.742,443.972 367.658,481.397 283.652,462.908 197.645,443.972 
	118.634,426.577 272.78,378.827 "/>
<path style="fill:#90BC42;" d="M398.883,40.715l19.433,59.777c15.37,32.939-15.382,29.833-19.421,29.833l-59.641-8.698
	l24.341-68.363L398.883,40.715z"/>
<path style="fill:#995C0D;" d="M489.462,229.838v65.953c0,12.574-10.189,22.763-22.75,22.763h-12.438H329.476
	c-12.574,0-22.763-10.189-22.763-22.763v-65.953c0-12.574,10.189-22.763,22.763-22.763h124.798h12.438
	C479.273,207.075,489.462,217.263,489.462,229.838z"/>
<path style="fill:#9AD14B;" d="M363.595,53.264l14.898,45.787l-230.586,89.672c1.118-5.542,24.459-89.917,24.459-95.782
	c0-5.765,41.481-22.394,40.388-27.836l138.665-49.291L363.595,53.264z"/>
<path style="fill:#E09B2D;" d="M173.727,85.46c0,6.063-1.205,11.841-3.38,17.109H87.596c-2.174-5.268-3.38-11.046-3.38-17.109
	c0-24.714,20.029-44.755,44.755-44.755C153.685,40.705,173.727,60.746,173.727,85.46z"/>
<path style="fill:#F7B239;" d="M214.419,85.46c0,5.865-0.584,11.568-1.702,17.109h-42.37c2.174-5.268,3.38-11.046,3.38-17.109
	c0-24.714-20.042-44.755-44.755-44.755c-24.726,0-44.755,20.042-44.755,44.755c0,6.063,1.205,11.841,3.38,17.109H45.214
	c-1.106-5.542-1.702-11.245-1.702-17.109C43.512,38.269,81.781,0,128.972,0c41.425,0,75.967,29.497,83.783,68.624
	C213.848,74.066,214.419,79.695,214.419,85.46z"/>
<path style="fill:#995C0D;" d="M175.406,114.739l-17.227-7.11l3.555-8.614c1.776-4.302,2.675-8.862,2.675-13.555
	c0-19.54-15.897-35.436-35.438-35.436c-19.54,0-35.436,15.897-35.436,35.436c0,4.694,0.901,9.254,2.674,13.555l3.555,8.614
	l-17.227,7.11l-3.555-8.614c-2.711-6.567-4.084-13.519-4.084-20.664c0-29.817,24.256-54.074,54.074-54.074
	s54.075,24.258,54.075,54.074c0,7.144-1.374,14.096-4.085,20.664L175.406,114.739z"/>
<path style="fill:#F7B239;" d="M369.697,234.162c15.815,0,28.652,12.823,28.652,28.652s-12.838,28.652-28.652,28.652
	c-15.83,0-28.667-12.823-28.667-28.652C341.03,246.984,353.868,234.162,369.697,234.162z"/>
<path style="fill:#B27214;" d="M454.274,318.553v60.374c0,26.316-21.322,47.65-47.65,47.65h-22.726H118.634H49.6H22.538V99.051
	h22.676h42.382h82.751h42.37h165.776h28.131c4.038,0,7.952,0.497,11.692,1.441c20.663,5.206,35.958,23.918,35.958,46.209v60.374
	H329.476c-12.574,0-22.763,10.189-22.763,22.763v65.953c0,12.574,10.189,22.763,22.763,22.763H454.274z"/>
<polygon style="fill:#90BC42;" points="383.898,426.577 378.742,443.972 197.645,443.972 118.634,426.577 "/>
<rect x="23.242" y="99.674" style="fill:#995C0D;" width="2.164" height="3.905"/>
<g>
</g>
<g>
</g>
<g>
</g>
<g>
</g>
<g>
</g>
<g>
</g>
<g>
</g>
<g>
</g>
<g>
</g>
<g>
</g>
<g>
</g>
<g>
</g>
<g>
</g>
<g>
</g>
<g>
</g>
</svg>
